<?xml version="1.0" standalone="no"?>
<!DOCTYPE svg PUBLIC "-//W3C//DTD SVG 20010904//EN"
 "http://www.w3.org/TR/2001/REC-SVG-20010904/DTD/svg10.dtd">
<svg version="1.0" xmlns="http://www.w3.org/2000/svg"
 width="300.000000pt" height="214.000000pt" viewBox="0 0 300.000000 214.000000"
 preserveAspectRatio="xMidYMid meet">
<metadata>
Created by potrace 1.10, written by Peter Selinger 2001-2011
</metadata>
<g transform="translate(0.000000,214.000000) scale(0.100000,-0.100000)"
fill="#000000" stroke="none">
<path d="M2326 1655 c-6 -17 -46 -21 -46 -4 0 8 -5 8 -15 -1 -21 -18 -19 -30
8 -31 21 0 21 -1 2 -9 -11 -5 -37 -11 -57 -15 -21 -3 -38 -10 -38 -15 0 -6 -6
-10 -14 -10 -17 0 -90 -111 -111 -169 -24 -68 -17 -82 9 -18 25 59 40 83 66
104 8 6 12 15 8 18 -7 7 14 35 26 35 3 0 6 -8 6 -17 1 -17 1 -17 14 0 7 9 15
17 18 17 3 0 35 20 72 45 74 50 148 76 186 66 14 -4 71 -7 128 -6 56 0 102 -2
102 -5 0 -3 15 -6 33 -6 17 -1 43 -5 57 -10 22 -6 23 -5 12 8 -11 13 -8 16 15
16 29 0 100 -20 137 -40 20 -10 20 -10 6 7 -14 17 -14 18 8 6 12 -7 20 -16 17
-21 -3 -6 1 -7 9 -4 17 6 22 24 8 24 -5 0 -17 7 -28 15 -18 15 -18 15 9 9 21
-5 27 -2 27 10 0 14 -34 16 -334 16 -288 0 -335 -2 -340 -15z"/>
<path d="M350 1620 c-119 -9 -285 -35 -324 -50 -35 -13 -34 -34 2 -26 96 23
303 46 407 45 66 0 144 3 173 7 67 9 136 -10 157 -42 14 -21 14 -25 1 -30 -8
-3 -22 -18 -32 -32 l-17 -27 29 27 c45 41 109 71 136 63 18 -6 20 -5 11 5 -6
7 -49 24 -95 38 -94 29 -258 37 -448 22z"/>
<path d="M2829 1604 c13 -26 39 -49 48 -40 3 3 15 -1 25 -11 10 -9 21 -13 26
-9 4 4 -6 19 -21 32 -31 27 -57 33 -37 9 8 -9 8 -15 2 -15 -6 0 -20 12 -32 28
-13 17 -17 19 -11 6z"/>
<path d="M2538 1561 c-1 -6 -25 -11 -53 -13 -27 -1 -54 -5 -60 -9 -5 -3 -41
-17 -80 -29 -66 -22 -129 -52 -148 -70 -5 -4 29 7 75 25 90 37 188 60 296 70
73 8 109 -3 143 -41 24 -28 189 -346 184 -354 -3 -4 -25 -11 -50 -14 -51 -8
-51 -9 -30 -89 8 -32 15 -66 15 -76 0 -14 6 -17 25 -13 29 5 29 3 10 65 -14
48 -14 48 11 57 14 6 29 10 34 10 5 0 16 -35 26 -77 13 -59 17 -128 18 -278 1
-191 0 -202 -22 -245 -13 -25 -45 -67 -70 -94 -71 -73 -298 -264 -373 -312
-60 -39 -74 -44 -142 -48 -74 -4 -75 -4 -85 22 -20 51 -24 74 -23 130 0 34 -7
72 -19 98 -16 37 -22 43 -47 41 -26 -2 -28 1 -28 33 0 34 1 35 44 37 24 2 49
7 55 12 6 4 33 13 60 20 52 13 121 45 131 60 3 6 -18 -1 -47 -14 -29 -13 -91
-31 -138 -39 -47 -8 -99 -18 -117 -22 l-32 -6 -3 58 c-2 31 -8 59 -14 61 -13
4 -7 -96 6 -111 5 -5 4 -16 -2 -26 -8 -13 -8 -22 3 -34 33 -39 54 -56 70 -56
22 0 37 -41 42 -115 4 -70 38 -148 70 -162 22 -10 296 0 363 13 21 4 34 1 43
-10 8 -9 17 -16 22 -16 17 0 9 27 -16 50 l-25 24 -76 -18 c-41 -10 -78 -16
-80 -13 -3 3 23 27 58 53 203 155 320 260 367 328 53 76 60 115 56 300 -2 92
-7 181 -10 196 -4 16 -2 37 4 47 10 17 10 17 11 -1 0 -11 3 -17 6 -13 12 12
-6 56 -20 51 -8 -3 -14 1 -13 8 1 39 -5 58 -28 79 l-24 24 22 17 22 18 -22 6
c-12 3 -22 13 -21 23 3 39 -2 66 -11 53 -11 -19 -52 51 -54 94 -2 18 -6 36
-10 41 -5 4 -5 -1 -1 -11 5 -14 4 -17 -4 -12 -7 4 -12 13 -12 19 0 7 -10 28
-22 47 -12 19 -23 41 -24 49 -2 8 -9 18 -16 22 -7 5 -13 14 -13 21 0 7 -6 14
-12 14 -7 1 -17 2 -22 3 -5 0 -11 8 -13 17 -2 12 -19 17 -71 20 -38 2 -73 6
-77 9 -5 3 -10 1 -12 -4z"/>
<path d="M806 1499 c-29 -23 -88 -96 -140 -174 -44 -67 -92 -187 -111 -277
-34 -160 -61 -548 -35 -508 5 8 10 25 10 38 0 13 4 21 9 17 6 -3 13 10 17 30
3 20 12 35 20 35 17 0 18 -17 2 -23 -17 -5 75 -34 129 -40 29 -3 40 -1 37 7
-2 6 0 25 5 41 6 18 10 23 10 11 1 -13 6 -17 21 -13 11 3 23 1 26 -4 3 -5 13
-9 24 -9 10 0 21 -7 24 -16 10 -27 -1 -28 -31 -4 l-28 22 -5 -29 c-6 -27 13
-53 28 -38 4 4 12 -10 19 -32 6 -21 12 -30 12 -20 1 23 21 22 21 -2 0 -10 11
-26 25 -35 14 -9 25 -12 25 -7 0 5 -4 13 -10 16 -5 3 -10 17 -10 31 0 19 -5
24 -27 24 l-27 0 22 20 c12 11 29 18 39 15 10 -3 8 -1 -4 6 -13 7 -28 27 -35
45 -6 17 -16 30 -23 28 -6 -3 -17 7 -25 21 -14 25 -34 33 -45 16 -3 -6 -15 -7
-28 -4 -12 2 -32 7 -44 10 -11 3 -29 1 -39 -5 -15 -8 -12 -11 19 -23 59 -21
43 -46 -21 -34 -20 4 -32 10 -25 12 7 2 10 10 7 18 -4 9 -17 11 -45 8 -46 -7
-46 -6 -24 94 24 106 57 195 85 233 43 57 49 74 70 190 17 103 46 180 86 235
13 17 18 18 52 6 20 -7 54 -24 75 -38 l39 -25 -7 34 c-4 18 -16 49 -26 69 -15
29 -25 37 -56 42 -55 10 -58 9 -87 -14z m65 -20 c5 -11 16 -19 24 -19 8 0 15
-6 15 -14 0 -12 -7 -13 -31 -6 -38 11 -49 21 -31 27 10 4 9 10 -4 24 -17 19
-17 19 -1 13 10 -3 22 -15 28 -25z m-120 -103 c-16 -20 -51 -116 -51 -141 0
-11 -8 -31 -17 -45 -12 -17 -13 -25 -5 -28 23 -7 13 -57 -18 -91 -17 -18 -28
-36 -25 -40 2 -5 -5 -17 -16 -27 -11 -9 -25 -37 -31 -61 -10 -40 -23 -61 -33
-51 -15 15 45 281 66 294 5 3 9 12 9 19 0 24 108 184 124 185 5 0 3 -6 -3 -14z
m-205 -752 c-5 -13 -10 -14 -18 -6 -6 6 -8 18 -4 28 5 13 10 14 18 6 6 -6 8
-18 4 -28z"/>
<path d="M1383 1480 c6 -17 17 -28 23 -26 6 2 24 -4 40 -15 70 -47 187 -100
196 -91 7 7 -18 25 -78 56 -49 25 -109 59 -134 75 -56 38 -61 38 -47 1z"/>
<path d="M1280 1470 c-12 -12 -18 -25 -15 -30 11 -17 20 -11 32 20 13 35 10
37 -17 10z"/>
<path d="M693 1453 c-13 -2 -30 -17 -39 -33 -11 -18 -23 -26 -33 -22 -9 3 -13
2 -9 -3 4 -4 -4 -27 -18 -51 -14 -24 -23 -44 -18 -44 4 0 0 -8 -9 -18 -23 -25
-78 -187 -80 -236 -1 -22 -7 -46 -13 -53 -11 -12 -20 -54 -29 -143 -3 -25 -6
-60 -9 -77 -2 -18 1 -30 5 -27 5 3 9 21 9 40 0 20 5 44 10 55 6 10 12 43 13
71 1 29 5 55 9 58 4 3 10 23 14 45 3 21 10 49 15 62 5 13 6 23 4 23 -6 0 19
67 51 138 13 29 24 54 24 57 0 2 12 21 26 42 14 21 30 48 35 61 5 12 20 27 33
32 13 5 27 14 31 19 3 6 5 10 3 10 -2 -1 -13 -4 -25 -6z"/>
<path d="M1294 1360 c3 -30 9 -100 12 -155 11 -162 23 -153 21 15 -2 136 -4
157 -21 175 -18 20 -18 19 -12 -35z"/>
<path d="M2225 1283 c-100 -53 -155 -130 -162 -224 -3 -32 -2 -59 0 -59 3 0
18 29 35 63 33 71 111 157 158 176 18 7 52 13 78 14 60 3 63 26 4 25 -52 0
-141 -35 -131 -52 3 -6 3 -8 -1 -4 -5 4 -13 3 -20 -3 -6 -5 -23 -19 -39 -30
-15 -11 -25 -24 -22 -28 2 -5 -7 -19 -22 -32 l-26 -24 26 45 c16 29 51 64 98
98 72 52 81 66 24 35z"/>
<path d="M1086 1205 c3 -11 20 -58 36 -105 16 -47 34 -110 39 -139 19 -100 35
-125 142 -222 133 -121 137 -125 133 -159 -3 -25 -1 -27 15 -17 10 6 15 15 13
19 -3 4 0 8 7 8 19 0 -13 41 -92 116 -40 38 -90 85 -111 105 -22 21 -38 46
-38 59 0 14 -8 24 -21 27 -23 6 -39 40 -39 82 0 34 -40 154 -69 206 -12 22
-19 31 -15 20z"/>
<path d="M2573 1122 c-17 -15 -49 -36 -70 -47 -21 -10 -49 -27 -63 -36 -20
-13 -39 -16 -92 -12 -44 4 -78 1 -99 -7 -46 -19 -65 -83 -34 -114 30 -30 93
14 105 74 6 28 32 34 36 8 1 -10 -1 -18 -6 -18 -4 0 -11 -7 -14 -16 -7 -18 3
-13 54 27 19 16 62 42 95 58 55 28 135 95 124 105 -2 2 -18 -8 -36 -22z"/>
<path d="M1946 1092 c0 -26 6 -63 12 -82 6 -19 13 -53 17 -75 4 -22 14 -52 23
-67 13 -22 13 -31 3 -56 -7 -16 -21 -39 -32 -50 -20 -22 -38 -80 -46 -147 -6
-57 21 -85 85 -85 38 1 43 3 29 11 -10 6 -25 8 -33 5 -8 -3 -24 4 -35 15 -29
29 -21 87 25 176 43 87 60 143 41 143 -7 0 -15 8 -18 18 -2 9 -8 24 -12 34 -4
11 -1 17 11 20 15 3 14 7 -9 34 -15 17 -24 34 -20 37 3 4 0 13 -6 21 -9 10 -9
20 -2 34 13 25 3 62 -18 62 -14 0 -17 -9 -15 -48z"/>
<path d="M2132 1093 c-31 -61 -52 -171 -23 -125 4 8 15 10 26 6 15 -6 17 -4
11 12 -16 39 -17 52 -8 88 11 39 8 47 -6 19z"/>
<path d="M1005 1061 c-6 -6 -23 -12 -39 -15 -35 -6 -106 -72 -106 -98 0 -18
26 -25 32 -9 2 5 12 11 23 13 16 2 21 -4 26 -41 3 -24 13 -49 21 -55 22 -16
41 -81 33 -115 -7 -32 23 -120 35 -101 10 16 32 -13 25 -32 -4 -9 1 -18 9 -21
23 -9 20 29 -4 64 -13 17 -26 26 -35 22 -11 -4 -15 2 -15 20 0 32 16 43 37 25
14 -11 16 -11 8 2 -4 8 -17 28 -28 43 -10 15 -19 43 -19 61 0 26 -6 36 -24 45
-13 5 -26 21 -28 33 -17 82 -16 87 11 113 26 23 28 23 46 8 16 -15 19 -15 27
-3 7 11 10 8 10 -12 0 -16 5 -28 11 -28 7 0 9 -9 5 -24 -7 -29 3 -86 15 -86 5
0 9 11 9 24 0 14 5 28 10 31 6 3 10 -4 10 -17 0 -18 2 -20 10 -8 9 14 15 7 11
-14 -1 -5 5 -4 13 3 15 13 11 45 -5 35 -11 -7 -11 -1 1 30 10 28 3 59 -11 50
-5 -3 -9 0 -9 5 0 17 -21 13 -36 -6 -11 -15 -21 -5 -11 12 4 9 -38 33 -50 28
-7 -3 -13 0 -13 7 0 9 10 11 30 6 19 -3 29 -2 25 4 -8 13 -48 13 -60 1z"/>
<path d="M982 963 c4 -14 2 -23 -5 -23 -8 0 -8 -3 0 -11 13 -13 33 -4 33 15 0
8 -8 20 -17 27 -15 13 -16 12 -11 -8z"/>
<path d="M1021 932 c-18 -33 -13 -44 10 -21 14 14 18 24 11 31 -7 7 -14 3 -21
-10z"/>
<path d="M1145 837 c-18 -43 -18 -47 -5 -47 6 0 10 10 10 23 0 13 5 28 12 35
6 6 9 15 5 18 -4 4 -14 -9 -22 -29z"/>
<path d="M1085 808 c-4 -11 8 -47 34 -97 23 -45 41 -91 42 -103 0 -22 1 -22 9
-3 8 19 9 19 9 0 1 -26 17 -8 25 30 5 21 4 26 -3 15 -8 -11 -16 -2 -35 43 -14
31 -30 57 -35 57 -5 0 -16 17 -24 38 -12 29 -17 33 -22 20z"/>
<path d="M2645 764 c-16 -13 -41 -33 -55 -45 -45 -39 -88 -51 -154 -44 -127
12 -182 21 -206 33 -23 12 -23 11 3 -11 24 -20 48 -26 143 -37 63 -7 114 -15
114 -17 0 -3 -23 -31 -70 -85 -17 -20 -51 -38 -106 -57 -88 -29 -100 -28 -149
13 l-30 25 32 1 c28 0 37 7 62 47 17 26 27 50 24 53 -3 3 -8 0 -10 -6 -12 -33
-29 -45 -53 -36 -28 10 -60 5 -60 -9 0 -5 9 -9 21 -9 18 0 19 -2 6 -15 -8 -8
-30 -17 -48 -20 -47 -8 -46 -12 0 -20 43 -7 49 -13 29 -33 -19 -19 6 -62 37
-62 15 0 24 4 21 9 -4 5 4 7 16 3 15 -4 19 -2 13 7 -6 10 -3 11 13 2 26 -14
35 -14 26 0 -5 9 1 10 21 5 26 -7 27 -6 14 10 -15 19 -16 19 36 -2 8 -3 15 -2
15 4 0 6 -6 13 -12 15 -7 3 0 4 16 2 33 -2 89 22 81 36 -4 5 1 9 9 9 8 0 20 9
26 19 5 11 16 26 24 33 7 8 23 33 35 56 19 37 26 42 55 42 29 0 37 6 65 51 17
28 30 53 29 54 -2 2 -16 -8 -33 -21z"/>
<path d="M2507 739 c9 -8 29 -12 57 -10 31 2 10 13 -29 16 -20 1 -32 -1 -28
-6z"/>
<path d="M860 670 c0 -5 16 -25 35 -44 19 -20 35 -44 35 -55 0 -11 5 -23 10
-26 6 -3 10 3 10 14 0 27 21 27 45 -1 22 -26 22 -28 4 -39 -9 -5 -4 -15 19
-37 33 -31 41 -57 20 -65 -10 -4 -9 -8 2 -16 12 -8 16 -4 22 22 15 71 -4 147
-38 147 -8 0 -11 6 -8 15 4 8 1 15 -5 15 -6 0 -16 12 -21 26 -6 14 -15 22 -20
19 -6 -4 -8 -10 -6 -14 3 -4 1 -13 -3 -19 -5 -9 -20 -1 -49 28 -44 42 -52 47
-52 30z m185 -153 c0 -26 -20 -25 -23 2 -3 16 1 22 10 19 7 -3 13 -12 13 -21z"/>
<path d="M1090 635 c0 -22 30 -73 47 -79 18 -7 16 5 -4 34 -10 14 -18 31 -18
39 0 8 -6 16 -12 18 -7 3 -13 -3 -13 -12z"/>
<path d="M2566 593 c-13 -39 -85 -130 -131 -165 -27 -20 -85 -52 -128 -70 -44
-18 -82 -39 -85 -47 -7 -20 36 -8 128 35 95 45 131 72 171 131 31 47 63 122
55 130 -2 3 -7 -4 -10 -14z"/>
<path d="M1340 586 c-14 -8 -44 -19 -66 -26 -35 -11 -41 -16 -36 -34 6 -24 30
-45 53 -46 15 0 129 57 129 66 0 2 -11 -1 -24 -6 -14 -5 -26 -5 -28 -1 -2 5
-25 5 -53 1 -27 -4 -51 -7 -53 -5 -2 1 20 11 48 21 28 10 56 24 62 31 13 17 0
16 -32 -1z"/>
<path d="M1210 571 c0 -9 -8 -11 -25 -7 -19 5 -23 3 -19 -9 8 -20 40 -19 48 1
4 9 4 19 1 22 -3 3 -5 0 -5 -7z"/>
<path d="M620 540 c0 -5 -14 -10 -31 -10 -16 0 -28 -4 -25 -9 6 -9 104 -23
185 -26 25 -1 47 -7 49 -13 5 -17 22 -15 22 3 0 8 -9 15 -20 15 -13 0 -22 9
-26 25 -6 24 -10 25 -80 25 -43 0 -74 -4 -74 -10z"/>
<path d="M1180 521 c0 -14 69 -65 77 -57 4 3 -3 13 -15 22 -12 8 -22 22 -22
30 0 8 -9 14 -20 14 -11 0 -20 -4 -20 -9z"/>
<path d="M523 463 c3 -28 10 -60 16 -70 5 -10 17 -43 26 -73 18 -59 61 -145
50 -100 -4 14 -13 39 -21 56 -8 18 -26 76 -40 130 -30 114 -39 131 -31 57z"/>
<path d="M935 458 c3 -29 13 -81 21 -114 8 -34 16 -79 18 -100 2 -22 7 -57 11
-78 6 -31 5 -37 -5 -31 -10 6 -12 4 -7 -9 5 -13 3 -17 -6 -13 -8 3 -34 -12
-58 -33 -24 -22 -39 -39 -32 -40 7 0 17 9 23 20 6 11 20 20 31 20 11 0 33 10
49 21 22 17 30 32 35 72 10 69 8 134 -4 155 -7 12 -9 1 -5 -38 3 -39 2 -49 -5
-35 -5 11 -10 34 -10 50 -1 17 -8 52 -16 78 -8 26 -15 65 -17 87 -1 27 -7 40
-16 40 -11 0 -13 -11 -7 -52z"/>
<path d="M1156 495 c7 -17 -9 -19 -37 -5 -22 12 -23 10 -7 -25 9 -21 9 -28 -2
-35 -10 -6 -8 -17 13 -53 31 -52 96 -103 81 -62 -4 8 -12 15 -19 15 -14 0 -25
22 -25 48 0 11 8 5 21 -15 22 -34 46 -46 35 -17 -3 9 -6 20 -6 25 0 6 -4 8 -9
4 -12 -7 -17 2 -25 45 l-7 35 16 -28 c9 -15 20 -25 25 -22 15 9 12 25 -4 25
-8 0 -21 18 -30 40 -9 22 -18 40 -21 40 -2 0 -2 -7 1 -15z"/>
<path d="M1764 444 c6 -31 3 -41 -28 -78 -36 -44 -40 -79 -10 -90 11 -4 14 5
14 38 0 32 6 48 23 64 13 12 29 22 35 22 15 0 15 0 1 38 -6 17 -17 33 -26 36
-13 5 -14 0 -9 -30z"/>
<path d="M703 428 c36 -37 47 -56 56 -99 l10 -54 -4 50 c-3 28 -14 62 -25 77
-26 36 -26 38 13 35 26 -2 35 -9 49 -39 10 -21 21 -69 24 -108 4 -42 13 -75
21 -82 12 -10 14 -6 9 23 -3 19 -8 57 -11 84 -3 28 -13 67 -23 88 -18 39 -32
46 -126 63 l-38 7 45 -45z"/>
<path d="M1300 461 c0 -5 9 -30 19 -54 22 -50 22 -74 0 -88 -22 -14 -33 -11
-19 6 7 9 11 18 8 20 -9 10 -38 -7 -38 -21 0 -8 -5 -14 -11 -14 -5 0 -8 -4 -4
-10 3 -5 -12 -18 -35 -30 -25 -13 -40 -27 -40 -39 0 -11 -3 -26 -6 -35 -3 -9
-2 -16 3 -16 5 0 15 16 23 35 16 41 93 86 113 66 19 -19 34 -12 47 22 28 69
72 93 123 66 27 -15 56 -50 57 -69 0 -13 2 -13 9 -1 6 9 3 29 -8 54 -15 36
-21 40 -57 44 -21 2 -45 6 -52 8 -7 3 -15 -1 -18 -9 -11 -28 -48 -12 -72 32
-22 39 -42 55 -42 33z"/>
<path d="M1975 450 c-11 -4 -23 -6 -27 -3 -5 2 -8 -5 -8 -16 0 -27 22 -27 45
-1 21 24 18 30 -10 20z"/>
<path d="M1231 445 c0 -13 57 -80 63 -74 3 2 -11 22 -29 44 -19 22 -34 36 -34
30z"/>
<path d="M884 433 c-20 -4 -21 -6 -8 -43 8 -22 15 -82 16 -134 2 -61 6 -89 12
-79 5 9 6 45 3 79 -5 52 -4 64 8 64 11 0 15 -13 17 -42 1 -41 1 -42 6 -8 5 41
-17 142 -30 134 -4 -3 -8 0 -8 5 0 6 5 11 10 11 6 0 10 5 10 10 0 6 -3 9 -7 9
-5 -1 -18 -4 -29 -6z"/>
<path d="M764 395 c3 -11 10 -41 17 -68 11 -44 9 -103 -7 -187 -5 -29 -4 -33
7 -22 22 21 19 228 -4 267 -11 18 -16 22 -13 10z"/>
<path d="M1856 373 c-9 -22 -7 -53 2 -53 13 0 38 33 38 49 -1 19 -33 23 -40 4z"/>
<path d="M1106 325 c4 -16 8 -68 9 -115 2 -88 11 -140 25 -140 5 0 4 15 -1 32
-11 40 -11 152 0 124 6 -15 9 -16 13 -5 3 8 -8 41 -24 74 -16 33 -26 47 -22
30z"/>
<path d="M2115 251 c3 -17 2 -32 -4 -36 -7 -4 -3 -16 10 -35 21 -27 21 -29 3
-59 -10 -17 -22 -31 -26 -31 -19 0 -91 53 -95 71 -3 10 -10 19 -15 19 -6 0 -8
-7 -4 -15 3 -9 0 -15 -9 -15 -8 0 -15 -5 -15 -11 0 -7 10 -9 24 -5 19 5 29 0
45 -20 11 -14 18 -31 15 -38 -3 -9 4 -11 24 -8 31 4 72 -27 72 -55 0 -8 12
-13 31 -13 l31 0 -31 35 c-33 39 -40 75 -16 95 11 9 12 17 4 32 -6 11 -9 38
-7 60 3 35 0 42 -20 49 -22 8 -23 7 -17 -20z"/>
<path d="M761 247 c0 -15 -8 -42 -17 -58 -8 -17 -14 -35 -12 -41 7 -19 40 80
35 104 -4 20 -4 19 -6 -5z"/>
<path d="M1255 261 c-7 -12 17 -41 34 -41 16 0 14 8 -8 31 -12 13 -21 17 -26
10z"/>
<path d="M1753 248 c4 -12 7 -26 7 -30 0 -5 9 -8 20 -8 17 0 20 -7 20 -39 0
-33 6 -44 41 -75 43 -39 77 -56 112 -56 14 0 -1 12 -42 33 -46 23 -69 42 -83
67 -18 35 -18 35 3 52 23 20 19 48 -6 48 -9 0 -30 7 -47 16 -31 16 -31 16 -25
-8z"/>
<path d="M1330 250 c-1 -8 -2 -18 -1 -22 0 -5 -6 -8 -14 -8 -8 0 -15 -5 -15
-11 0 -5 -3 -8 -7 -6 -5 3 -7 -32 -7 -76 2 -117 3 -127 12 -127 4 0 6 36 4 79
-4 68 -1 85 18 119 12 22 20 46 17 53 -4 11 -6 11 -7 -1z"/>
<path d="M1560 245 c0 -10 34 -42 57 -54 38 -19 49 -12 14 10 -19 11 -40 27
-48 35 -15 15 -23 18 -23 9z"/>
<path d="M1213 194 c-7 -19 2 -107 17 -157 17 -57 22 -39 8 27 -11 50 -10 61
5 88 22 38 21 45 -4 51 -13 3 -22 0 -26 -9z"/>
<path d="M1476 195 c-3 -8 -16 -17 -30 -21 -22 -5 -24 -10 -19 -37 7 -39 13
-47 13 -19 0 11 6 27 13 34 37 41 49 58 40 58 -6 0 -13 -7 -17 -15z"/>
<path d="M1151 167 c-1 -24 60 -155 66 -140 2 6 -6 31 -19 55 -13 24 -28 57
-35 73 -7 19 -12 23 -12 12z"/>
<path d="M1055 70 c3 -5 1 -10 -5 -10 -6 0 -8 -5 -4 -12 5 -9 2 -9 -9 1 -15
12 -17 11 -17 -3 0 -9 6 -16 14 -16 7 0 19 -7 26 -15 15 -19 47 -21 33 -2 -6
6 -13 24 -17 40 -3 15 -11 27 -17 27 -6 0 -7 -4 -4 -10z"/>
<path d="M1403 25 c-13 -29 -3 -32 32 -9 14 9 36 14 50 12 14 -3 25 -2 25 2 0
12 -27 20 -63 20 -24 0 -35 -6 -44 -25z"/>
<path d="M950 18 c0 -5 -3 -7 -7 -5 -5 3 -17 1 -28 -4 -15 -6 -10 -8 22 -8 45
-1 66 13 33 22 -11 3 -20 1 -20 -5z"/>
</g>
</svg>
